<svg xmlns="http://www.w3.org/2000/svg" width="512" height="512" viewBox="0 0 512 512">
  <rect width="512" height="512" fill="#181818"/>
  <g>
    <rect x="64" y="64" width="87" height="87" rx="16" fill="#f9df6d"/>
    <rect x="163" y="64" width="87" height="87" rx="16" fill="#f9df6d"/>
    <rect x="262" y="64" width="87" height="87" rx="16" fill="#f9df6d"/>
    <rect x="361" y="64" width="87" height="87" rx="16" fill="#f9df6d"/>
    <rect x="64" y="163" width="87" height="87" rx="16" fill="#a0c35a"/>
    <rect x="163" y="163" width="87" height="87" rx="16" fill="#a0c35a"/>
    <rect x="262" y="163" width="87" height="87" rx="16" fill="#a0c35a"/>
    <rect x="361" y="163" width="87" height="87" rx="16" fill="#a0c35a"/>
    <rect x="64" y="262" width="87" height="87" rx="16" fill="#b0c4ef"/>
    <rect x="163" y="262" width="87" height="87" rx="16" fill="#b0c4ef"/>
    <rect x="262" y="262" width="87" height="87" rx="16" fill="#b0c4ef"/>
    <rect x="361" y="262" width="87" height="87" rx="16" fill="#b0c4ef"/>
    <rect x="64" y="361" width="87" height="87" rx="16" fill="#ba81c5"/>
    <rect x="163" y="361" width="87" height="87" rx="16" fill="#ba81c5"/>
    <rect x="262" y="361" width="87" height="87" rx="16" fill="#ba81c5"/>
    <rect x="361" y="361" width="87" height="87" rx="16" fill="#ba81c5"/>
  </g>
</svg>
